# xmcd CD database file
# Copyright (C) 1993-1998 Ti Kan
#
# Track frame offsets:
#	150
#	21625
#	36950
#	58527
#	73975
#	98490
#	117540
#	136392
#	158020
#
# Disc length: 2502 seconds
#
# Revision: 1
# Processed by: cddbd v1.4b41PL1 Copyright (c) Steve Scherf et al.
# Submitted via: NotifyCDPlayer(CDDB) 1.51.3
#
DISCID=7f09c409
DTITLE=Jacob Moon - On The Trail
DYEAR=1900
DGENRE=
TTITLE0=on the trail
TTITLE1=days of peace
TTITLE2=heritage room
TTITLE3=i know all about you
TTITLE4=falling
TTITLE5=i just want
TTITLE6=celebration
TTITLE7=the miles between us
TTITLE8=amen
EXTD=
EXTT0=
EXTT1=
EXTT2=
EXTT3=
EXTT4=
EXTT5=
EXTT6=
EXTT7=
EXTT8=
PLAYORDER=
